<?xml version="1.0" standalone="no"?>
<!DOCTYPE svg PUBLIC "-//W3C//DTD SVG 20010904//EN"
 "http://www.w3.org/TR/2001/REC-SVG-20010904/DTD/svg10.dtd">
<svg version="1.0" xmlns="http://www.w3.org/2000/svg"
 width="700.000000pt" height="700.000000pt" viewBox="0 0 700.000000 700.000000"
 preserveAspectRatio="xMidYMid meet">
<metadata>
Created by potrace 1.14, written by Peter Selinger 2001-2017
</metadata>
<g transform="translate(0.000000,700.000000) scale(0.100000,-0.100000)"
fill="#000000" stroke="none">
<path d="M3389 6646 c-2 -2 -20 -6 -39 -9 -344 -48 -653 -311 -764 -648 -22
-69 -28 -94 -42 -179 -7 -49 -4 -211 6 -274 72 -452 459 -794 915 -809 271 -9
520 88 711 278 376 374 382 977 12 1353 -186 189 -418 287 -686 290 -60 1
-111 0 -113 -2z"/>
<path d="M1050 4144 c-242 -41 -450 -231 -516 -469 -23 -82 -27 -234 -8 -315
60 -259 263 -455 524 -504 50 -9 617 -12 2465 -11 1320 1 2418 5 2440 9 297
56 521 318 531 621 10 315 -182 574 -491 661 -56 16 -237 17 -2470 18 -1740 1
-2428 -1 -2475 -10z"/>
<path d="M3405 2269 c-151 -20 -213 -38 -335 -97 -276 -134 -487 -429 -524
-732 -8 -64 -8 -201 -1 -245 3 -16 7 -46 11 -65 8 -54 53 -188 81 -244 115
-227 316 -403 549 -482 44 -14 88 -28 99 -30 11 -2 31 -7 45 -10 14 -4 84 -8
155 -9 113 -2 144 1 241 25 178 44 319 122 446 246 126 123 232 307 262 457 4
15 8 37 11 50 18 89 21 234 5 331 -58 359 -312 653 -660 765 -122 40 -270 55
-385 40z"/>
</g>
</svg>
